# This file uses centimeters as units for non-parametric coordinates.

mtllib BuildingOBJ.mtl
g default
v -22.215176 0.720399 -24.239882
v 19.731673 0.720399 -21.555948
v -22.215176 35.876049 -24.239883
v 19.731673 35.876049 -21.555948
v -20.427087 35.876049 -52.185683
v 21.519762 35.876049 -49.501749
v -20.427087 0.720399 -52.185683
v 21.519762 0.720399 -49.501749
v -22.215176 7.751529 -24.239882
v -20.427087 7.751529 -52.185683
v 21.519762 7.751529 -49.501749
v 19.731673 7.751529 -21.555948
v -23.990495 -0.568024 -23.214436
v 21.361823 -0.568024 -20.312605
v 21.361823 7.033930 -20.312605
v -23.990495 7.033930 -23.214436
v -22.057240 7.033930 -53.429026
v 23.295079 7.033930 -50.527196
v 23.295079 -0.568024 -50.527196
v -22.057240 -0.568024 -53.429026
vt 0.302341 0.029490
vt 0.666575 0.024109
vt 0.311544 0.302077
vt 0.667009 0.298546
vt 0.309856 0.499175
vt 0.671885 0.495514
vt 0.311052 0.771813
vt 0.674831 0.768750
vt 0.312389 0.968786
vt 0.676313 0.965862
vt 0.867264 0.020884
vt 0.858948 0.308092
vt 0.101524 0.036035
vt 0.121217 0.318151
vt 0.305382 0.104873
vt 0.107444 0.123827
vt 0.310612 0.696853
vt 0.674171 0.693630
vt 0.864862 0.109293
vt 0.666978 0.099719
vt 0.293974 0.042217
vt 0.675222 0.036574
vt 0.676142 0.089506
vt 0.296057 0.094993
vt 0.295903 0.706428
vt 0.689021 0.702973
vt 0.689494 0.756522
vt 0.296215 0.759860
vt 0.875553 0.038865
vt 0.873566 0.094177
vt 0.094257 0.053584
vt 0.097668 0.108498
vn -0.063854 0.000000 0.997959
vn -0.063854 0.000000 0.997959
vn -0.063854 0.000000 0.997959
vn -0.063854 0.000000 0.997959
vn 0.000000 1.000000 0.000000
vn 0.000000 1.000000 0.000000
vn 0.000000 1.000000 0.000000
vn 0.000000 1.000000 0.000000
vn 0.063854 0.000000 -0.997959
vn 0.063854 0.000000 -0.997959
vn 0.063854 0.000000 -0.997959
vn 0.063854 0.000000 -0.997959
vn 0.000000 -1.000000 0.000000
vn 0.000000 -1.000000 0.000000
vn 0.000000 -1.000000 0.000000
vn 0.000000 -1.000000 0.000000
vn 0.997959 0.000000 0.063854
vn 0.997959 0.000000 0.063854
vn 0.997959 0.000000 0.063854
vn 0.997959 0.000000 0.063854
vn -0.997959 0.000000 -0.063854
vn -0.997959 0.000000 -0.063854
vn -0.997959 0.000000 -0.063854
vn -0.997959 0.000000 -0.063854
vn -0.997959 0.000000 -0.063854
vn -0.997959 0.000000 -0.063854
vn -0.997959 0.000000 -0.063854
vn -0.997959 0.000000 -0.063854
vn 0.063854 0.000000 -0.997959
vn 0.063854 0.000000 -0.997959
vn 0.063854 0.000000 -0.997959
vn 0.063854 0.000000 -0.997959
vn 0.997959 -0.000000 0.063854
vn 0.997959 -0.000000 0.063854
vn 0.997959 -0.000000 0.063854
vn 0.997959 -0.000000 0.063854
vn -0.063854 0.000000 0.997959
vn -0.063854 0.000000 0.997959
vn -0.063854 0.000000 0.997959
vn -0.063854 0.000000 0.997959
vn 0.047882 -0.661579 -0.748345
vn 0.047882 -0.661579 -0.748345
vn 0.047882 -0.661579 -0.748345
vn 0.047882 -0.661579 -0.748345
vn -0.034086 0.845599 0.532729
vn -0.034086 0.845599 0.532730
vn -0.034086 0.845599 0.532730
vn -0.034086 0.845599 0.532730
vn 0.034086 0.845599 -0.532730
vn 0.034086 0.845599 -0.532730
vn 0.034086 0.845599 -0.532730
vn 0.034086 0.845599 -0.532730
vn -0.047882 -0.661580 0.748345
vn -0.047882 -0.661580 0.748345
vn -0.047882 -0.661580 0.748345
vn -0.047882 -0.661580 0.748345
vn -0.601390 -0.798029 -0.038479
vn -0.601390 -0.798029 -0.038479
vn -0.601390 -0.798029 -0.038479
vn -0.601390 -0.798029 -0.038479
vn 0.386895 0.921791 0.024755
vn 0.386895 0.921791 0.024755
vn 0.386895 0.921791 0.024755
vn 0.386895 0.921791 0.024755
vn 0.601389 -0.798029 0.038479
vn 0.601389 -0.798029 0.038479
vn 0.601389 -0.798029 0.038479
vn 0.601389 -0.798029 0.038479
vn -0.386895 0.921791 -0.024755
vn -0.386895 0.921791 -0.024755
vn -0.386895 0.921791 -0.024755
vn -0.386895 0.921791 -0.024755
s off
g Building
usemtl initialShadingGroup
f 13/21/1 14/22/2 15/23/3 16/24/4
f 3/3/5 4/4/6 6/6/7 5/5/8
f 17/25/9 18/26/10 19/27/11 20/28/12
f 7/7/13 8/8/14 2/10/15 1/9/16
f 14/22/17 19/29/18 18/30/19 15/23/20
f 20/31/21 13/21/22 16/24/23 17/32/24
f 10/16/25 9/15/26 3/3/27 5/14/28
f 5/5/29 6/6/30 11/18/31 10/17/32
f 12/20/33 11/19/34 6/12/35 4/4/36
f 9/15/37 12/20/38 4/4/39 3/3/40
f 1/1/41 2/2/42 14/22/43 13/21/44
f 12/20/45 9/15/46 16/24/47 15/23/48
f 10/17/49 11/18/50 18/26/51 17/25/52
f 8/8/53 7/7/54 20/28/55 19/27/56
f 2/2/57 8/11/58 19/29/59 14/22/60
f 11/19/61 12/20/62 15/23/63 18/30/64
f 7/13/65 1/1/66 13/21/67 20/31/68
f 9/15/69 10/16/70 17/32/71 16/24/72
