# This file uses centimeters as units for non-parametric coordinates.

mtllib CrateOBJ.mtl
g default
v -0.504445 0.275162 11.944977
v -0.504445 0.275162 7.927703
v -0.504445 5.275162 11.944977
v -0.504445 5.275162 7.927703
v -5.504444 5.275162 11.944977
v -5.504444 5.275162 7.927703
v -5.504444 0.275162 11.944977
v -5.504444 0.275162 7.927703
v -5.504444 0.275162 6.959869
v -0.504445 0.275162 6.959869
v -5.504444 5.275162 6.959869
v -0.504445 5.275162 6.959869
v -5.504444 0.275162 12.912810
v -0.504445 0.275162 12.912810
v -0.504445 5.275162 12.912810
v -5.504444 5.275162 12.912810
v -5.754444 0.025162 7.927703
v -0.254444 0.025162 7.927703
v -5.754444 0.025162 6.959869
v -0.254444 0.025162 6.959869
v -5.754444 5.525163 7.927703
v -5.754444 5.525163 6.959869
v -0.254444 5.525163 7.927703
v -0.254444 5.525163 6.959869
v -5.754444 0.025162 11.944977
v -0.254444 0.025162 11.944977
v -0.254444 0.025162 12.912810
v -5.754444 0.025162 12.912810
v -0.254444 5.525163 11.944977
v -0.254444 5.525163 12.912810
v -5.754444 5.525163 11.944977
v -5.754444 5.525163 12.912810
vt 0.424588 0.023873
vt 0.609074 0.024773
vt 0.423724 0.287816
vt 0.611836 0.288827
vt 0.421086 0.518550
vt 0.607776 0.522898
vt 0.413957 0.749666
vt 0.600429 0.756414
vt 0.404358 0.981427
vt 0.590752 0.989116
vt 0.890890 0.010884
vt 0.894858 0.292133
vt 0.144281 0.010940
vt 0.139174 0.292495
vt 0.649116 0.057686
vt 0.855982 0.051025
vt 0.855702 0.256036
vt 0.649584 0.252344
vt 0.182034 0.048600
vt 0.386462 0.059534
vt 0.384021 0.253893
vt 0.175598 0.253877
vt 0.610238 0.026092
vt 0.889837 0.012039
vt 0.866146 0.040448
vt 0.638740 0.048280
vt 0.893732 0.291001
vt 0.865985 0.266468
vt 0.613322 0.287771
vt 0.639102 0.261895
vt 0.145379 0.012137
vt 0.423095 0.024971
vt 0.397019 0.050298
vt 0.172143 0.037791
vt 0.422579 0.286511
vt 0.394328 0.263614
vt 0.140263 0.291443
vt 0.165061 0.264074
vn 1.000000 0.000000 0.000000
vn 1.000000 0.000000 0.000000
vn 1.000000 0.000000 0.000000
vn 1.000000 0.000000 0.000000
vn 0.000000 1.000000 0.000000
vn 0.000000 1.000000 0.000000
vn 0.000000 1.000000 0.000000
vn 0.000000 1.000000 0.000000
vn -1.000000 0.000000 0.000000
vn -1.000000 0.000000 0.000000
vn -1.000000 0.000000 0.000000
vn -1.000000 0.000000 0.000000
vn 0.000000 -1.000000 0.000000
vn 0.000000 -1.000000 0.000000
vn 0.000000 -1.000000 0.000000
vn 0.000000 -1.000000 0.000000
vn 0.000000 0.000000 -1.000000
vn -0.000000 0.000000 -1.000000
vn -0.000000 0.000000 -1.000000
vn 0.000000 0.000000 -1.000000
vn 0.000000 0.000000 1.000000
vn -0.000000 0.000000 1.000000
vn -0.000000 0.000000 1.000000
vn 0.000000 0.000000 1.000000
vn 0.000000 -1.000000 0.000000
vn 0.000000 -1.000000 0.000000
vn 0.000000 -1.000000 0.000000
vn 0.000000 -1.000000 0.000000
vn -1.000000 0.000000 0.000000
vn -1.000000 0.000000 0.000000
vn -1.000000 0.000000 0.000000
vn -1.000000 0.000000 0.000000
vn 0.000000 1.000000 0.000000
vn 0.000000 1.000000 0.000000
vn 0.000000 1.000000 0.000000
vn 0.000000 1.000000 0.000000
vn 1.000000 0.000000 0.000000
vn 1.000000 0.000000 0.000000
vn 1.000000 0.000000 0.000000
vn 1.000000 0.000000 0.000000
vn 0.000000 -1.000000 0.000000
vn 0.000000 -1.000000 0.000000
vn 0.000000 -1.000000 0.000000
vn 0.000000 -1.000000 0.000000
vn 1.000000 0.000000 0.000000
vn 1.000000 0.000000 0.000000
vn 1.000000 0.000000 0.000000
vn 1.000000 0.000000 0.000000
vn 0.000000 1.000000 0.000000
vn 0.000000 1.000000 0.000000
vn 0.000000 1.000000 0.000000
vn 0.000000 1.000000 0.000000
vn -1.000000 0.000000 0.000000
vn -1.000000 0.000000 0.000000
vn -1.000000 0.000000 0.000000
vn -1.000000 0.000000 0.000000
vn -0.000000 0.000000 1.000000
vn 0.000000 0.000000 1.000000
vn 0.000000 0.000000 1.000000
vn -0.000000 0.000000 1.000000
vn 0.000000 0.000000 -1.000000
vn -0.000000 0.000000 -1.000000
vn 0.000000 0.000000 1.000000
vn 0.000000 0.000000 1.000000
vn -0.000000 0.000000 -1.000000
vn -0.000000 0.000000 1.000000
vn -0.000000 0.000000 1.000000
vn 0.000000 0.000000 -1.000000
vn 0.000001 0.000000 -1.000000
vn -0.000001 0.000000 -1.000000
vn -0.000001 0.000000 -1.000000
vn 0.000001 0.000000 -1.000000
vn 0.000000 0.000000 1.000000
vn -0.000001 0.000000 1.000000
vn -0.000001 0.000000 -1.000000
vn -0.000001 0.000000 -1.000000
vn -0.000001 0.000000 1.000000
vn 0.000001 0.000000 -1.000000
vn 0.000001 0.000000 -1.000000
vn 0.000000 0.000000 1.000000
s off
g Crate
usemtl initialShadingGroup
f 1/1/1 2/2/2 4/4/3 3/3/4
f 3/3/5 4/4/6 6/6/7 5/5/8
f 5/5/9 6/6/10 8/8/11 7/7/12
f 7/7/13 8/8/14 2/10/15 1/9/16
s 1
f 10/15/17 9/16/18 11/17/19 12/18/20
s 2
f 13/19/21 14/20/22 15/21/23 16/22/24
s off
f 18/23/25 17/24/26 19/25/27 20/26/28
f 17/24/29 21/27/30 22/28/31 19/25/32
f 21/27/33 23/29/34 24/30/35 22/28/36
f 23/29/37 18/23/38 20/26/39 24/30/40
f 25/31/41 26/32/42 27/33/43 28/34/44
f 26/32/45 29/35/46 30/36/47 27/33/48
f 29/35/49 31/37/50 32/38/51 30/36/52
f 31/37/53 25/31/54 28/34/55 32/38/56
s 3
f 2/2/57 8/11/58 17/24/59 18/23/60
s 1
f 9/16/18 10/15/17 20/26/61 19/25/62
s 3
f 8/11/58 6/12/63 21/27/64 17/24/59
s 1
f 11/17/19 9/16/18 19/25/62 22/28/65
s 3
f 6/12/63 4/4/66 23/29/67 21/27/64
s 1
f 12/18/20 11/17/19 22/28/65 24/30/68
s 3
f 4/4/66 2/2/57 18/23/60 23/29/67
s 1
f 10/15/17 12/18/20 24/30/68 20/26/61
s 4
f 7/13/69 1/1/70 26/32/71 25/31/72
s 2
f 14/20/22 13/19/21 28/34/73 27/33/74
s 4
f 1/1/70 3/3/75 29/35/76 26/32/71
s 2
f 15/21/23 14/20/22 27/33/74 30/36/77
s 4
f 3/3/75 5/14/78 31/37/79 29/35/76
s 2
f 16/22/24 15/21/23 30/36/77 32/38/80
s 4
f 5/14/78 7/13/69 25/31/72 31/37/79
s 2
f 13/19/21 16/22/24 32/38/80 28/34/73
