# This file uses centimeters as units for non-parametric coordinates.

mtllib FlagOBJ.mtl
g default
v -10.541407 14.085983 16.232861
v -6.761063 14.085983 16.232861
v -10.541407 17.739429 16.232861
v -6.761063 17.739429 16.232861
v -10.541407 17.739429 16.190136
v -6.761063 17.739429 16.190136
v -10.541407 14.085983 16.190136
v -6.761063 14.085983 16.190136
v -8.651234 14.078924 16.232861
v -8.651234 17.739429 16.232861
v -8.651234 17.739429 16.190136
v -8.651234 14.078924 16.190136
v -8.651234 11.937691 16.190136
v -8.651234 11.937691 16.232861
v -6.553241 17.901896 16.038002
v -6.553241 17.879248 15.993556
v -6.553241 17.843975 15.958280
v -6.553241 17.799530 15.935634
v -6.553241 17.750257 15.927829
v -6.553241 17.700987 15.935634
v -6.553241 17.656542 15.958280
v -6.553241 17.621267 15.993556
v -6.553241 17.598621 16.038002
v -6.553241 17.590816 16.087273
v -6.553241 17.598621 16.136539
v -6.553241 17.621267 16.180988
v -6.553241 17.656542 16.216263
v -6.553241 17.700989 16.238911
v -6.553241 17.750257 16.246716
v -6.553241 17.799528 16.238911
v -6.553241 17.843975 16.216263
v -6.553241 17.879248 16.180988
v -6.553241 17.901896 16.136539
v -6.553241 17.909700 16.087273
v -10.776873 17.901896 16.038002
v -10.776873 17.879248 15.993556
v -10.776873 17.843975 15.958280
v -10.776873 17.799530 15.935634
v -10.776873 17.750257 15.927829
v -10.776873 17.700987 15.935634
v -10.776873 17.656542 15.958280
v -10.776873 17.621267 15.993556
v -10.776873 17.598621 16.038002
v -10.776873 17.590816 16.087273
v -10.776873 17.598621 16.136539
v -10.776873 17.621267 16.180988
v -10.776873 17.656542 16.216263
v -10.776873 17.700989 16.238911
v -10.776873 17.750257 16.246716
v -10.776873 17.799528 16.238911
v -10.776873 17.843975 16.216263
v -10.776873 17.879248 16.180988
v -10.776873 17.901896 16.136539
v -10.776873 17.909700 16.087273
v -6.098856 17.750257 16.087273
v -11.231256 17.750257 16.087273
vt 0.028375 0.010537
vt 0.430931 0.008485
vt 0.032389 0.399324
vt 0.430878 0.397293
vt 0.032474 0.404009
vt 0.430841 0.401979
vt 0.043753 0.810628
vt 0.423706 0.808692
vt 0.043230 0.816252
vt 0.424287 0.814310
vt 0.435445 0.008485
vt 0.435393 0.397291
vt 0.023860 0.010582
vt 0.027874 0.399367
vt 0.229641 0.007256
vt 0.234662 0.992744
vt 0.231597 0.391153
vt 0.231619 0.395495
vt 0.233464 0.757592
vt 0.234136 0.889402
vt 0.234152 0.892641
vt 0.446686 0.005992
vt 0.455086 0.005992
vt 0.455086 0.257991
vt 0.446686 0.257991
vt 0.463486 0.005992
vt 0.463486 0.257991
vt 0.471886 0.005992
vt 0.471886 0.257991
vt 0.480286 0.005992
vt 0.480286 0.257991
vt 0.488686 0.005992
vt 0.488686 0.257991
vt 0.497086 0.005992
vt 0.497086 0.257991
vt 0.505486 0.005992
vt 0.505486 0.257991
vt 0.513886 0.005992
vt 0.513886 0.257991
vt 0.522286 0.005992
vt 0.522286 0.257991
vt 0.530686 0.005992
vt 0.530686 0.257991
vt 0.539086 0.005992
vt 0.539086 0.257991
vt 0.547486 0.005992
vt 0.547486 0.257991
vt 0.555886 0.005992
vt 0.555886 0.257991
vt 0.564285 0.005992
vt 0.564285 0.257991
vt 0.572685 0.005992
vt 0.572685 0.257991
vt 0.581085 0.005992
vt 0.581085 0.257991
vt 0.589485 0.005992
vt 0.589485 0.257991
vt 0.597885 0.005992
vt 0.597885 0.257991
vt 0.606285 0.005992
vt 0.606285 0.257991
vt 0.614685 0.005992
vt 0.614685 0.257991
vt 0.530616 0.296820
vt 0.527916 0.305130
vt 0.503033 0.292452
vt 0.530616 0.288083
vt 0.527916 0.279773
vt 0.522780 0.272704
vt 0.515711 0.267568
vt 0.507402 0.264868
vt 0.498664 0.264868
vt 0.490354 0.267568
vt 0.483285 0.272704
vt 0.478149 0.279773
vt 0.475449 0.288083
vt 0.475449 0.296820
vt 0.478149 0.305130
vt 0.483285 0.312199
vt 0.490354 0.317335
vt 0.498664 0.320035
vt 0.507402 0.320035
vt 0.515711 0.317335
vt 0.522780 0.312199
vt 0.574327 0.317335
vt 0.566017 0.320035
vt 0.561648 0.292451
vt 0.557279 0.320035
vt 0.548969 0.317335
vt 0.541900 0.312199
vt 0.536764 0.305130
vt 0.534064 0.296820
vt 0.534064 0.288083
vt 0.536764 0.279773
vt 0.541900 0.272704
vt 0.548969 0.267568
vt 0.557279 0.264868
vt 0.566017 0.264868
vt 0.574327 0.267568
vt 0.581396 0.272704
vt 0.586531 0.279773
vt 0.589232 0.288083
vt 0.589232 0.296820
vt 0.586531 0.305130
vt 0.581396 0.312199
vn 0.000000 0.000000 1.000000
vn 0.000000 0.000000 1.000000
vn 0.000000 0.000000 1.000000
vn 0.000000 0.000000 1.000000
vn 0.000000 1.000000 0.000000
vn 0.000000 1.000000 0.000000
vn 0.000000 1.000000 0.000000
vn 0.000000 1.000000 0.000000
vn 0.000000 0.000000 -1.000000
vn -0.000000 0.000000 -1.000000
vn -0.000000 0.000000 -1.000000
vn 0.000000 0.000000 -1.000000
vn -0.750771 -0.660562 0.000000
vn 0.000000 -1.000000 0.000000
vn 0.000000 -1.000000 0.000000
vn -0.750771 -0.660562 0.000000
vn 1.000000 0.000000 0.000000
vn 1.000000 0.000000 0.000000
vn 1.000000 0.000000 0.000000
vn 1.000000 0.000000 0.000000
vn -1.000000 0.000000 0.000000
vn -1.000000 0.000000 0.000000
vn -1.000000 0.000000 0.000000
vn -1.000000 0.000000 0.000000
vn 0.000000 0.000000 1.000000
vn 0.000000 0.000000 1.000000
vn 0.000000 1.000000 0.000000
vn 0.000000 1.000000 0.000000
vn -0.000000 0.000000 -1.000000
vn -0.000000 0.000000 -1.000000
vn 0.750772 -0.660562 0.000000
vn 0.750772 -0.660562 0.000000
vn 0.000000 0.000000 -1.000000
vn 0.000000 0.000000 -1.000000
vn 0.000000 0.000000 -1.000000
vn 0.000000 0.000000 1.000000
vn 0.000000 0.000000 1.000000
vn 0.000000 0.000000 1.000000
vn 0.000000 0.000000 -1.000000
vn 0.000000 0.000000 -1.000000
vn 0.000000 0.000000 -1.000000
vn 0.000000 0.000000 1.000000
vn 0.000000 0.000000 1.000000
vn 0.000000 0.000000 1.000000
vn 0.000000 0.951047 -0.309045
vn 0.000000 0.809021 -0.587780
vn 0.000000 0.809021 -0.587780
vn 0.000000 0.951047 -0.309045
vn 0.000000 0.587810 -0.808999
vn 0.000000 0.587810 -0.808999
vn 0.000000 0.309018 -0.951056
vn 0.000000 0.309018 -0.951056
vn 0.000000 0.000000 -1.000000
vn 0.000000 0.000000 -1.000000
vn 0.000000 -0.309024 -0.951054
vn 0.000000 -0.309024 -0.951054
vn 0.000000 -0.587801 -0.809006
vn 0.000000 -0.587801 -0.809006
vn 0.000000 -0.809021 -0.587780
vn 0.000000 -0.809021 -0.587780
vn 0.000000 -0.951058 -0.309012
vn 0.000000 -0.951058 -0.309012
vn 0.000000 -1.000000 0.000000
vn 0.000000 -1.000000 0.000000
vn 0.000000 -0.951057 0.309014
vn 0.000000 -0.951057 0.309014
vn 0.000000 -0.809024 0.587775
vn 0.000000 -0.809024 0.587775
vn 0.000000 -0.587792 0.809012
vn 0.000000 -0.587792 0.809012
vn 0.000000 -0.309041 0.951049
vn 0.000000 -0.309041 0.951049
vn 0.000000 0.000000 1.000000
vn 0.000000 0.000000 1.000000
vn 0.000000 0.309036 0.951050
vn 0.000000 0.309036 0.951050
vn 0.000000 0.587801 0.809006
vn 0.000000 0.587801 0.809006
vn 0.000000 0.809024 0.587775
vn 0.000000 0.809024 0.587775
vn 0.000000 0.951047 0.309048
vn 0.000000 0.951047 0.309048
vn 0.000000 1.000000 -0.000000
vn 0.000000 1.000000 -0.000000
vn 0.331097 0.763378 -0.554643
vn 0.331113 0.897410 -0.291580
vn 1.000000 -0.000000 0.000000
vn 0.331108 0.554655 -0.763365
vn 0.331107 0.291592 -0.897409
vn 0.331108 0.000000 -0.943593
vn 0.331112 -0.291603 -0.897403
vn 0.331091 -0.554640 -0.763383
vn 0.331092 -0.763379 -0.554645
vn 0.331104 -0.897413 -0.291582
vn 0.331101 -0.943595 0.000000
vn 0.331098 -0.897414 0.291585
vn 0.331094 -0.763382 0.554639
vn 0.331087 -0.554623 0.763397
vn 0.331113 -0.291613 0.897399
vn 0.331117 0.000003 0.943590
vn 0.331105 0.291605 0.897405
vn 0.331090 0.554642 0.763382
vn 0.331089 0.763384 0.554640
vn 0.331098 0.897415 0.291584
vn 0.331110 0.943592 -0.000000
vn -0.331114 0.897410 -0.291581
vn -0.331092 0.763379 -0.554645
vn -1.000000 -0.000004 -0.000001
vn -0.331101 0.554656 -0.763367
vn -0.331117 0.291601 -0.897402
vn -0.331108 0.000000 -0.943593
vn -0.331103 -0.291590 -0.897411
vn -0.331108 -0.554655 -0.763365
vn -0.331097 -0.763378 -0.554643
vn -0.331092 -0.897405 -0.291620
vn -0.331092 -0.943598 -0.000001
vn -0.331095 -0.897403 0.291622
vn -0.331091 -0.763381 0.554642
vn -0.331091 -0.554640 0.763383
vn -0.331098 -0.291608 0.897407
vn -0.331117 0.000000 0.943590
vn -0.331117 0.291618 0.897396
vn -0.331095 0.554639 0.763382
vn -0.331095 0.763380 0.554641
vn -0.331099 0.897414 0.291585
vn -0.331110 0.943592 -0.000000
s 1
g Flag1
usemtl WeaponStand:lambert1SG
f 1/1/1 9/15/2 10/17/3 3/3/4
s 2
f 3/3/5 10/17/6 11/18/7 5/5/8
s 3
f 5/5/9 11/18/10 12/19/11 7/7/12
s 4
f 7/7/13 13/20/14 14/21/15 1/9/16
s off
f 2/2/17 8/11/18 6/12/19 4/4/20
f 7/13/21 1/1/22 3/3/23 5/14/24
s 1
f 10/17/3 9/15/2 2/2/25 4/4/26
s 2
f 11/18/7 10/17/6 4/4/27 6/6/28
s 3
f 12/19/11 11/18/10 6/6/29 8/8/30
s 4
f 14/21/15 13/20/14 8/8/31 2/10/32
s off
f 7/7/33 12/19/34 13/20/35
f 9/16/36 1/9/37 14/21/38
f 12/19/39 8/8/40 13/20/41
f 2/10/42 9/16/43 14/21/44
s 5
usemtl WeaponStand:standardSurface3SG
f 15/22/45 16/23/46 36/24/47 35/25/48
f 16/23/46 17/26/49 37/27/50 36/24/47
f 17/26/49 18/28/51 38/29/52 37/27/50
f 18/28/51 19/30/53 39/31/54 38/29/52
f 19/30/53 20/32/55 40/33/56 39/31/54
f 20/32/55 21/34/57 41/35/58 40/33/56
f 21/34/57 22/36/59 42/37/60 41/35/58
f 22/36/59 23/38/61 43/39/62 42/37/60
f 23/38/61 24/40/63 44/41/64 43/39/62
f 24/40/63 25/42/65 45/43/66 44/41/64
f 25/42/65 26/44/67 46/45/68 45/43/66
f 26/44/67 27/46/69 47/47/70 46/45/68
f 27/46/69 28/48/71 48/49/72 47/47/70
f 28/48/71 29/50/73 49/51/74 48/49/72
f 29/50/73 30/52/75 50/53/76 49/51/74
f 30/52/75 31/54/77 51/55/78 50/53/76
f 31/54/77 32/56/79 52/57/80 51/55/78
f 32/56/79 33/58/81 53/59/82 52/57/80
f 33/58/81 34/60/83 54/61/84 53/59/82
f 34/60/83 15/62/45 35/63/48 54/61/84
s 6
f 16/64/85 15/65/86 55/66/87
f 17/67/88 16/64/85 55/66/87
f 18/68/89 17/67/88 55/66/87
f 19/69/90 18/68/89 55/66/87
f 20/70/91 19/69/90 55/66/87
f 21/71/92 20/70/91 55/66/87
f 22/72/93 21/71/92 55/66/87
f 23/73/94 22/72/93 55/66/87
f 24/74/95 23/73/94 55/66/87
f 25/75/96 24/74/95 55/66/87
f 26/76/97 25/75/96 55/66/87
f 27/77/98 26/76/97 55/66/87
f 28/78/99 27/77/98 55/66/87
f 29/79/100 28/78/99 55/66/87
f 30/80/101 29/79/100 55/66/87
f 31/81/102 30/80/101 55/66/87
f 32/82/103 31/81/102 55/66/87
f 33/83/104 32/82/103 55/66/87
f 34/84/105 33/83/104 55/66/87
f 15/65/86 34/84/105 55/66/87
s 7
f 35/85/106 36/86/107 56/87/108
f 36/86/107 37/88/109 56/87/108
f 37/88/109 38/89/110 56/87/108
f 38/89/110 39/90/111 56/87/108
f 39/90/111 40/91/112 56/87/108
f 40/91/112 41/92/113 56/87/108
f 41/92/113 42/93/114 56/87/108
f 42/93/114 43/94/115 56/87/108
f 43/94/115 44/95/116 56/87/108
f 44/95/116 45/96/117 56/87/108
f 45/96/117 46/97/118 56/87/108
f 46/97/118 47/98/119 56/87/108
f 47/98/119 48/99/120 56/87/108
f 48/99/120 49/100/121 56/87/108
f 49/100/121 50/101/122 56/87/108
f 50/101/122 51/102/123 56/87/108
f 51/102/123 52/103/124 56/87/108
f 52/103/124 53/104/125 56/87/108
f 53/104/125 54/105/126 56/87/108
f 54/105/126 35/85/106 56/87/108
