# This file uses centimeters as units for non-parametric coordinates.

mtllib FloorOBJ.mtl
g default
v -61.634438 0.024461 18.626217
v 32.013248 -0.555462 18.600601
v -61.635498 0.024452 -48.752048
v 32.012188 -0.555471 -48.777653
v 18.807850 -0.110134 18.600599
v 18.806780 -0.110143 -48.777653
v 19.018454 -0.555462 18.600599
v 19.017384 -0.555471 -48.777653
v 32.216106 0.000000 18.600601
v 32.215046 -0.000009 -48.777653
v 38.990181 0.000000 18.600601
v 38.989120 -0.000009 -48.777653
v -61.634438 -0.420866 19.051579
v 18.876720 -0.451025 19.025137
v -61.634438 -0.420866 27.848549
v 18.877594 -0.445327 27.822931
v 32.082993 -0.445327 19.025961
v 32.082993 -0.445327 27.822931
vt 0.010130 0.214257
vt 0.767443 0.223677
vt 0.794668 0.859900
vt 0.003628 0.874933
vt 0.771898 0.222950
vt 0.799483 0.859568
vt 0.895206 0.212039
vt 0.925622 0.850592
vt 0.900836 0.211599
vt 0.931318 0.850177
vt 0.965530 0.206642
vt 0.996372 0.845352
vt 0.010428 0.208325
vt 0.769120 0.218608
vt 0.014690 0.123597
vt 0.769103 0.134437
vt 0.895589 0.207846
vt 0.890766 0.123767
vn 0.001671 0.999982 0.005797
vn 0.007149 0.999955 0.006246
vn 0.007191 0.999974 -0.000000
vn 0.001673 0.999999 -0.000000
vn 0.033703 0.999432 -0.000001
vn 0.033704 0.999432 -0.000001
vn 0.000000 1.000000 -0.000000
vn 0.000000 1.000000 -0.000000
vn -0.939319 0.343045 0.000015
vn -0.939319 0.343045 0.000015
vn -0.939319 0.343045 0.000015
vn -0.939319 0.343045 0.000015
vn 0.000000 1.000000 -0.000000
vn 0.000000 1.000000 -0.000000
vn 0.000000 1.000000 -0.000000
vn 0.000000 1.000000 -0.000000
vn 0.000971 0.734112 0.679028
vn 0.000971 0.734112 0.679028
vn 0.887022 0.419483 0.192940
vn 0.887022 0.419483 0.192940
vn 0.887022 0.419483 0.192940
vn 0.000339 1.000000 -0.000324
vn 0.000339 1.000000 -0.000324
vn 0.000339 1.000000 -0.000324
vn 0.000339 1.000000 -0.000324
vn -0.000203 0.969573 -0.244802
vn -0.000203 0.969573 -0.244802
vn -0.000203 0.969573 -0.244802
vn -0.000203 0.969573 -0.244802
vn -0.000216 1.000000 -0.000324
vn -0.000216 1.000000 -0.000324
vn -0.000216 1.000000 -0.000324
vn -0.000216 1.000000 -0.000324
s 1
g Ground
usemtl initialShadingGroup
f 1/1/1 5/2/2 6/3/3 3/4/4
f 6/3/3 5/2/2 7/5/5 8/6/6
f 8/6/6 7/5/5 2/7/7 4/8/8
s off
f 4/8/9 2/7/10 9/9/11 10/10/12
f 10/10/13 9/9/14 11/11/15 12/12/16
s 1
f 5/2/2 1/1/1 13/13/17 14/14/18
s off
f 5/2/19 14/14/20 7/5/21
f 14/14/22 13/13/23 15/15/24 16/16/25
f 7/5/26 14/14/27 17/17/28 2/7/29
f 14/14/30 16/16/31 18/18/32 17/17/33
